<svg id="Calque_1" data-name="Calque 1" xmlns="http://www.w3.org/2000/svg" viewBox="0 0 531.32 104.74"><title>logo_almas_horizontal</title><path d="M271.91,73.43l15.64,32.38h-9.08l-2.75-6.1H259.12l-2.75,6.1h-8.85l15.64-32.38ZM261.73,94h11.38s-5.37-11.6-5.64-13.12C267.19,81.82,261.73,94,261.73,94Z" transform="translate(-38.62 -72.42)" style="fill:#1e1f1d"/><path d="M299.29,73.43V99.85h18v6h-26.1V73.43Z" transform="translate(-38.62 -72.42)" style="fill:#1e1f1d"/><path d="M365.06,105.81h-7.7l.14-22.66a16.52,16.52,0,0,1,.23-3c-.27.82-.59,1.65-.92,2.47l-9.68,23.21h-7.38L330.1,83.06c-.24-.55-.41-1.06-.6-1.56s-.27-.91-.42-1.37c.09,1,.19,1.92.24,2.88l.09,22.8h-7.7V73.43h11.75l8.4,19.86a24.25,24.25,0,0,1,1.65,4.77A23.8,23.8,0,0,1,345,93.61l8.44-20.18h11.6Z" transform="translate(-38.62 -72.42)" style="fill:#1e1f1d"/><path d="M393.25,73.43l15.64,32.38h-9.08l-2.75-6.1H380.45l-2.75,6.1h-8.85l15.64-32.38ZM383.06,94h11.38s-5.37-11.6-5.64-13.12C388.52,81.82,383.06,94,383.06,94Z" transform="translate(-38.62 -72.42)" style="fill:#1e1f1d"/><path d="M436.31,82.1a5.16,5.16,0,0,0-.74-1.05c-2-2.33-5.78-2.84-8.62-2.84a17.49,17.49,0,0,0-2.71.19c-.27,0-4.54.37-4.54,3.57,0,1.65,1.15,2.34,2.57,2.8,2.29.68,8.07,1.51,10.41,2a29.52,29.52,0,0,1,4.4,1c1.88.65,6.52,2.29,6.52,8.3,0,2.94-1.05,7.57-7.66,9.68a26.84,26.84,0,0,1-5.37,1c-1.15.09-2.29.14-3.44.14-5.78,0-9-1.19-11.29-2.44a14.48,14.48,0,0,1-5.64-5.32,10.71,10.71,0,0,1-.78-1.38l7.39-1.88c1.92,4,6.93,5.05,10.87,5.05.33,0,4.4,0,6.61-1.47a3.44,3.44,0,0,0,1.56-2.8,2.61,2.61,0,0,0-1.06-2.16c-1-.78-3.12-1.09-6.05-1.55-6-.92-9.17-1.37-11.79-2.62a8.42,8.42,0,0,1-5.09-7.7,8.67,8.67,0,0,1,3.94-7.34c2.07-1.42,5.42-2.8,11.19-2.8,5.51,0,8.44,1,10.73,2.06a13.82,13.82,0,0,1,4,2.75,13.67,13.67,0,0,1,2.2,2.94Z" transform="translate(-38.62 -72.42)" style="fill:#1e1f1d"/><path d="M250.54,119.52v31.7h-3v-31.7Z" transform="translate(-38.62 -72.42)" style="fill:#1e1f1d"/><path d="M292.1,151.22h-2.82l-27.16-27.66v27.66h-2.83v-31.7h2.83l27.16,27.79V119.52h2.82Z" transform="translate(-38.62 -72.42)" style="fill:#1e1f1d"/><path d="M317.24,119.52c.94,0,1.88,0,2.82.09a14.13,14.13,0,0,1,8.35,3.19c5.12,4.22,5.39,10.69,5.39,12.67a19.62,19.62,0,0,1-.63,4.94,13.86,13.86,0,0,1-7.45,9.2c-3.23,1.48-6.55,1.58-10,1.62H301.39v-31.7Zm-12.71,29h10.1c4.27,0,9.07-.09,12.39-3.23,1.71-1.62,3.59-4.49,3.59-9.7S328.37,125,323,123a15.91,15.91,0,0,0-5.79-.9H304.53Z" transform="translate(-38.62 -72.42)" style="fill:#1e1f1d"/><path d="M372.58,119.52v19a14.78,14.78,0,0,1-1.89,7.81c-1.84,3-4.62,4.35-7.95,5.12a26.69,26.69,0,0,1-5.88.58,29.71,29.71,0,0,1-7.81-.94,11,11,0,0,1-7.77-6.83,19.39,19.39,0,0,1-.8-6.42V119.52h2.92v17.06c0,3-.13,6,1.71,8.57,1.61,2.25,4.89,4,10.73,4,7.13,0,10.65-1.39,12.53-4.67,1.08-1.89,1.35-4,1.35-8.22V119.52Z" transform="translate(-38.62 -72.42)" style="fill:#1e1f1d"/><path d="M408.54,126.43c-.27-.36-.63-.81-.95-1.17-2.91-3-7.27-3.86-11.27-3.86-.9,0-5.07,0-8.21,1.83a6.49,6.49,0,0,0-2.33,2.26,4.59,4.59,0,0,0-.59,2.24,3.75,3.75,0,0,0,2.47,3.41c1.35.63,2.87.85,5.88,1.26,6.92,1,11.32,1.44,14.1,2.65a7.24,7.24,0,0,1,4.72,6.74,8.56,8.56,0,0,1-1.48,4.71c-2,2.87-6.24,5.52-14,5.52-.89,0-1.79-.05-2.74-.09-1.35-.08-8-.4-11.94-4.62a17.43,17.43,0,0,1-2.69-4l3.32-1.26a9.94,9.94,0,0,0,3.77,4.89c1.85,1.22,5,2.34,10.06,2.34,1.21,0,5.57,0,9.07-2.07,1.93-1.17,3.37-2.87,3.37-5.21a4.14,4.14,0,0,0-1.49-3.32c-2-1.67-7.4-2.25-9.74-2.56-1.93-.27-3.86-.49-5.75-.76a22.48,22.48,0,0,1-6.37-1.57,6.48,6.48,0,0,1-3.77-5.88,8.3,8.3,0,0,1,4.53-7c2.83-1.56,6.87-2.15,10.06-2.15,1.93,0,7.94.14,12.7,4a15.15,15.15,0,0,1,2.15,2.2Z" transform="translate(-38.62 -72.42)" style="fill:#1e1f1d"/><path d="M444.35,119.52v2.6h-13.6v29.09h-3V122.12H413.51v-2.6Z" transform="translate(-38.62 -72.42)" style="fill:#1e1f1d"/><path d="M482.51,151.22h-4.26l-12.53-14.14h-14.5v14.14h-3.06v-31.7h21.91c.76,0,1.53,0,2.3,0,1.3,0,5,.22,7.27,3.63a9.27,9.27,0,0,1,1.39,5,8.36,8.36,0,0,1-3.22,6.82c-2.39,1.75-5.26,1.89-8,2Zm-31.29-16.84h17c.72,0,1.39,0,2.11,0,2.65-.14,5.3-.58,6.65-3.23a7.18,7.18,0,0,0,.72-3.05,6.09,6.09,0,0,0-2.43-4.9c-1.57-1-3.32-1-5.12-1H451.22Z" transform="translate(-38.62 -72.42)" style="fill:#1e1f1d"/><path d="M492.28,119.52v31.7h-3v-31.7Z" transform="translate(-38.62 -72.42)" style="fill:#1e1f1d"/><path d="M531.39,119.52v2.6H504.13v11.13h25.19V136H504.13v12.62h28.56v2.65H501v-31.7Z" transform="translate(-38.62 -72.42)" style="fill:#1e1f1d"/><path d="M566.12,126.43c-.27-.36-.63-.81-.94-1.17-2.92-3-7.27-3.86-11.27-3.86-.9,0-5.08,0-8.22,1.83a6.64,6.64,0,0,0-2.34,2.26,4.77,4.77,0,0,0-.58,2.24,3.76,3.76,0,0,0,2.47,3.41c1.35.63,2.88.85,5.88,1.26,6.92,1,11.32,1.44,14.1,2.65a7.23,7.23,0,0,1,4.72,6.74,8.56,8.56,0,0,1-1.48,4.71c-2,2.87-6.24,5.52-14,5.52-.89,0-1.79-.05-2.74-.09-1.34-.08-8-.4-11.94-4.62a17.06,17.06,0,0,1-2.7-4L540.4,142a9.94,9.94,0,0,0,3.77,4.89c1.84,1.22,5,2.34,10.05,2.34,1.21,0,5.57,0,9.07-2.07,1.92-1.17,3.37-2.87,3.37-5.21a4.19,4.19,0,0,0-1.48-3.32c-2-1.67-7.41-2.25-9.74-2.56-1.93-.27-3.86-.49-5.75-.76a22.52,22.52,0,0,1-6.37-1.57,6.48,6.48,0,0,1-3.77-5.88,8.3,8.3,0,0,1,4.54-7c2.82-1.56,6.86-2.15,10.06-2.15,1.93,0,8,.14,12.7,4a15.59,15.59,0,0,1,2.16,2.2Z" transform="translate(-38.62 -72.42)" style="fill:#1e1f1d"/><rect x="209.08" y="96.75" width="196.59" height="7.99" style="fill:#e4032e"/><path d="M38.62,161.53l15.49,6.58-.4-3.85-2.35-4.67,5-3.33,19.21-8.42,9.64,27.54L111,169l-2.11-2.86-7-1.18-3.45-5.09L101,146.13l-.8-6.87,27.6-2.4-.88,5.29-3.26,7.11,2.08,7-3.53,15.45,26.61-.32-1-3.07-5.88-2.06-3.3-4.42L149,139.26l5.42-.77,9-5.11,6.76,11.13,10.3,14.17,3.17,7.58,11.66,5.91,24.28-.46-5.8-5.07-8.46-1.29-15-34.16c-.51-4.29-1.37-12.83-1.37-12.83l17.47-12.6,4.37-7.44,11.31-6.87,1.59-5-.18-3.58h-8.2l-3.74-4.58H206.2l-6.31-.7-8.1-.45-2.86-3.44h-2.58l-2.86,2v2.86l-1,2.76-7.84,3L166.91,82l-20.76,4L94.59,81.28,67.44,99.66c-.53.7-7.05,31.19-7.05,31.19L48.08,141.27Z" transform="translate(-38.62 -72.42)" style="fill:#e4032e"/></svg>